<svg xmlns="http://www.w3.org/2000/svg" xmlns:xlink="http://www.w3.org/1999/xlink" width="412" zoomAndPan="magnify" viewBox="0 0 309 181.5" height="242" preserveAspectRatio="xMidYMid meet" version="1.0"><defs><g/></defs><g fill="#000000" fill-opacity="1"><g transform="translate(93.095975, 123.946174)"><g><path d="M 52.898438 -23.1875 C 51.964844 -25.734375 50.671875 -28.191406 49.464844 -30.671875 C 48.082031 -33.488281 46.808594 -36.238281 45.511719 -39.082031 C 44.921875 -40.277344 44.308594 -41.5625 43.605469 -42.824219 C 43.035156 -44.3125 42.355469 -45.867188 41.695312 -47.332031 C 39.945312 -51.210938 38.195312 -55.089844 36.175781 -58.898438 C 34.335938 -62.371094 31.886719 -65.589844 28.382812 -67.679688 C 27.003906 -68.578125 25.015625 -68.078125 24.003906 -66.765625 C 22.761719 -67.121094 21.363281 -66.960938 19.941406 -66.121094 C 18.996094 -65.6875 18.230469 -64.535156 18.28125 -63.585938 C 19.183594 -55.460938 19.164062 -47.199219 19.414062 -39.003906 C 19.519531 -33.652344 19.714844 -28.324219 19.824219 -22.976562 C 15.441406 -31.5625 10.78125 -41.621094 6.894531 -50.527344 C 5.960938 -52.691406 4.941406 -54.832031 4.210938 -56.953125 C 3.890625 -57.832031 3.304688 -58.644531 2.601562 -59.136719 C 1.558594 -60.601562 -0.09375 -61.433594 -1.898438 -61.359375 C -3.457031 -61.445312 -5.035156 -60.855469 -6.25 -59.585938 C -7.171875 -58.679688 -7.394531 -57.664062 -7.167969 -56.761719 C -7.546875 -54.839844 -6.953125 -52.878906 -6.40625 -51.097656 C -5.855469 -48.929688 -5.242188 -46.878906 -4.691406 -44.710938 L -4.167969 -42.636719 C -4.347656 -42.589844 -4.941406 -44.554688 -5.121094 -44.507812 C -6.195312 -48.363281 -7.335938 -52.492188 -8.789062 -55.964844 C -8.996094 -56.394531 -9.898438 -56.164062 -9.875 -55.691406 C -9.5625 -50.296875 -7.832031 -44.972656 -6.441406 -39.851562 C -5.09375 -34.527344 -3.632812 -29.136719 -2.101562 -23.859375 C -0.6875 -18.648438 0.953125 -13.683594 3 -8.632812 C 3.820312 -6.535156 4.683594 -3.875 6.71875 -2.660156 C 7.738281 -2.054688 9.046875 -2.195312 10.039062 -2.828125 C 10.175781 -2.671875 10.289062 -2.605469 10.402344 -2.535156 C 10.875 -2.175781 11.507812 -2.335938 11.980469 -2.746094 C 14.546875 -4.738281 13.433594 -8.007812 12.679688 -10.605469 C 10.582031 -18.136719 8.300781 -26.011719 6.019531 -33.5 C 6.40625 -32.734375 6.859375 -32.082031 7.3125 -31.425781 C 8.789062 -28.632812 10.375 -25.769531 11.941406 -22.996094 L 19.320312 -10.171875 C 20.046875 -8.820312 20.75 -7.558594 21.878906 -6.5 C 22.152344 -6.183594 22.535156 -6.183594 22.761719 -6.433594 C 23.191406 -6.253906 23.664062 -6.277344 24.117188 -6.394531 C 24.433594 -6.28125 24.882812 -6.394531 25.3125 -6.601562 C 26.664062 -7.328125 26.953125 -8.457031 27.085938 -9.832031 C 27.128906 -10.804688 27.101562 -11.664062 27.054688 -12.609375 C 27.101562 -12.429688 27.394531 -12.410156 27.394531 -12.792969 C 27.15625 -16.765625 27.003906 -22.679688 26.917969 -27.941406 C 26.902344 -33.3125 27.171875 -41.734375 27.738281 -48.601562 C 29.511719 -45.015625 31.28125 -41.433594 33.144531 -37.871094 C 37.117188 -30.523438 39.9375 -23.554688 42.128906 -15.660156 C 42.675781 -13.492188 44.757812 -12.097656 46.949219 -12.171875 C 49.773438 -10.488281 52.746094 -12.777344 53.507812 -15.464844 C 54.199219 -18.042969 53.71875 -20.703125 52.898438 -23.1875 Z M 9.234375 -38.25 C 9.1875 -38.429688 9.050781 -38.589844 8.9375 -38.65625 C 6.347656 -43.953125 3.714844 -49.050781 0.96875 -54.210938 C 1.011719 -54.414062 0.988281 -54.503906 0.96875 -54.59375 C 1.394531 -54.800781 1.800781 -55.09375 2.09375 -55.457031 C 2.820312 -54.105469 3.34375 -52.796875 3.867188 -51.488281 C 5.84375 -47.089844 8.683594 -40.800781 10.75 -36.425781 C 10.074219 -36.832031 9.824219 -37.441406 9.234375 -38.25 Z M 26.421875 -28.007812 L 26.332031 -27.984375 C 26.242188 -27.960938 26.152344 -27.9375 26.039062 -28.003906 C 25.96875 -29.425781 25.894531 -30.851562 25.734375 -32.25 C 25.625 -38.75 25.71875 -45.207031 26.195312 -51.667969 C 26.535156 -51.082031 26.785156 -50.472656 27.101562 -49.976562 C 26.558594 -42.636719 26.3125 -35.277344 26.421875 -28.007812 Z M 26.421875 -28.007812 "/></g></g></g><g fill="#000000" fill-opacity="1"><g transform="translate(131.352159, 111.927266)"><g><path d="M 3.921875 -49.039062 C 3.730469 -48.863281 3.71875 -48.582031 3.902344 -48.484375 C 5.984375 -49.339844 8.058594 -50.101562 10.222656 -50.675781 C 16.441406 -52.589844 22.816406 -53.757812 29.195312 -54.921875 C 32.851562 -55.628906 36.609375 -56.421875 40.269531 -57.222656 C 39.433594 -57.253906 38.59375 -57.28125 37.753906 -57.21875 C 33.742188 -57.085938 29.902344 -56.480469 26.0625 -55.875 L 23.902344 -55.394531 C 17.140625 -53.871094 10.179688 -52.074219 3.921875 -49.039062 Z M 54.738281 -9.285156 C 55.882812 -10.082031 56.675781 -11.355469 56.644531 -13.035156 C 56.464844 -18.347656 54.992188 -26.601562 47.777344 -25.371094 C 46.742188 -25.128906 45.796875 -24.699219 44.761719 -24.457031 L 41.09375 -23.472656 C 38.832031 -22.808594 36.570312 -22.050781 34.308594 -21.296875 C 32.894531 -20.882812 31.480469 -20.375 30.0625 -19.867188 L 22.042969 -17.085938 C 19.96875 -16.320312 17.890625 -15.558594 15.808594 -14.703125 L 15.523438 -14.527344 C 15.53125 -14.710938 15.535156 -14.804688 15.539062 -14.898438 L 15.199219 -20.964844 C 17.851562 -22.171875 20.410156 -23.382812 23.148438 -24.402344 C 27.589844 -26.105469 32.011719 -27.339844 36.519531 -28.386719 C 38.773438 -28.867188 41.117188 -29.246094 43.363281 -29.539062 C 45.519531 -29.925781 47.5625 -29.757812 49.550781 -30.617188 C 51.253906 -31.394531 52.445312 -33.398438 52.136719 -35.179688 C 51.984375 -36.117188 51.460938 -37.066406 50.640625 -37.5625 C 50.546875 -37.566406 50.546875 -37.566406 50.457031 -37.664062 C 50.378906 -38.039062 50.207031 -38.417969 50.03125 -38.796875 C 49.945312 -38.984375 49.863281 -39.269531 49.6875 -39.554688 C 48.464844 -41.835938 46.238281 -42.007812 43.910156 -42 C 42.789062 -41.945312 41.761719 -41.890625 40.640625 -41.746094 L 39.417969 -41.511719 C 36.414062 -40.78125 33.3125 -40.054688 30.308594 -39.417969 C 24.933594 -37.660156 19.738281 -35.613281 14.445312 -33.566406 C 14.464844 -34.035156 14.027344 -37.402344 13.96875 -38.335938 L 14.160156 -38.515625 C 17.089844 -39.621094 20.105469 -40.628906 23.121094 -41.542969 C 24.160156 -41.972656 33.46875 -44.429688 38.261719 -45.558594 C 38.449219 -45.550781 38.636719 -45.636719 38.828125 -45.722656 C 40.988281 -46.203125 43.152344 -46.777344 45.21875 -47.355469 L 49.921875 -48.582031 C 50.363281 -50.429688 50.152344 -52.390625 49.574219 -54.367188 C 49.121094 -54.757812 48.582031 -55.242188 48.128906 -55.632812 L 46.660156 -56.246094 C 46.109375 -56.449219 45.460938 -56.566406 44.8125 -56.683594 C 39.929688 -55.558594 35.042969 -54.429688 30.074219 -53.492188 C 23.699219 -52.421875 17.324219 -51.253906 11.105469 -49.339844 C 9.128906 -48.757812 7.054688 -48.089844 5.070312 -47.324219 C 4.96875 -47.046875 4.773438 -46.773438 4.671875 -46.589844 C 3.328125 -45.523438 2.441406 -44.15625 2.1875 -42.304688 C 1.945312 -40.730469 2.4375 -38.941406 3.511719 -37.691406 L 4.242188 -27.046875 L 4.953125 -15.84375 C 5.113281 -12.574219 5.179688 -9.21875 5.621094 -6.035156 C 4.695312 -3.648438 6.175781 -0.800781 8.46875 0.214844 C 8.359375 0.675781 8.34375 1.046875 8.515625 1.519531 C 9.203125 3.128906 10.871094 3.28125 12.371094 3.058594 C 12.742188 3.070312 13.304688 3 13.304688 3 C 13.207031 3.085938 18.566406 1.699219 19.710938 0.996094 L 19.808594 0.90625 C 20.847656 0.476562 21.886719 0.144531 22.925781 -0.285156 C 23.113281 -0.371094 23.398438 -0.453125 23.585938 -0.539062 L 23.679688 -0.539062 C 26.796875 -1.726562 30 -2.730469 33.203125 -3.730469 C 39.894531 -5.816406 46.839844 -7.335938 53.773438 -8.386719 C 54.335938 -8.460938 54.625 -8.820312 54.738281 -9.285156 Z M 32.941406 -29.824219 L 33.023438 -29.539062 C 32.457031 -29.375 31.988281 -29.207031 31.417969 -28.945312 C 26.699219 -27.253906 21.796875 -25.664062 17.15625 -23.503906 C 17.921875 -24.128906 18.515625 -25.035156 18.738281 -26.054688 C 20.523438 -26.453125 22.308594 -26.949219 24.191406 -27.4375 C 27.109375 -28.265625 30.023438 -28.996094 32.941406 -29.824219 Z M 11.210938 1.617188 C 13.089844 1.21875 14.882812 0.539062 16.675781 -0.046875 C 18.464844 -0.539062 20.160156 -1.128906 21.859375 -1.722656 L 21.851562 -1.535156 C 20.429688 -0.839844 19.007812 -0.148438 17.492188 0.542969 C 16.828125 0.890625 16.070312 1.234375 15.3125 1.582031 C 15.214844 1.671875 15.121094 1.667969 15.03125 1.664062 C 14.746094 1.746094 12.601562 1.855469 11.210938 1.617188 Z M 11.210938 1.617188 "/></g></g></g><g fill="#000000" fill-opacity="1"><g transform="translate(172.141288, 112.282478)"><g><path d="M 33.488281 6.875 C 33.660156 13.90625 40.328125 15.660156 41.691406 7.332031 C 42.542969 1.761719 43.140625 -5.917969 43.519531 -11.53125 C 49.347656 -13.222656 50.714844 -21.550781 44.15625 -24.339844 C 45.097656 -29.882812 48.503906 -43.53125 48.152344 -42.664062 C 46.933594 -39.820312 45.84375 -36.746094 44.867188 -33.734375 C 44.777344 -33.761719 44.777344 -33.761719 44.710938 -33.875 C 45.375 -37.464844 46.085938 -41.230469 46.863281 -44.886719 C 47.429688 -47.824219 46.074219 -50.15625 43.535156 -51.09375 C 43.238281 -52.730469 41.765625 -54.328125 40.21875 -54.679688 C 35.636719 -55.921875 32.230469 -50.90625 29.605469 -47.890625 C 25.664062 -43.027344 22.535156 -37.636719 19.5625 -32.105469 C 8.460938 -33.605469 5.613281 -23.867188 10.914062 -20.765625 C 10.925781 -20.472656 10.734375 -20.140625 10.589844 -19.988281 C 11.304688 -19.777344 12.226562 -19.605469 13.054688 -19.460938 C 10.203125 -14.667969 7.792969 -9.75 5.539062 -4.683594 C 1.921875 3.375 12.636719 7.863281 15.726562 -0.0585938 L 17.4375 -3.925781 C 17.4375 -3.925781 21.621094 -12.59375 24.0625 -16.632812 L 24.867188 -16.398438 C 21.628906 -11.621094 19.230469 -6.40625 17.21875 -1.175781 C 16.816406 -0.128906 18.335938 0.3125 18.648438 -0.757812 C 20.6875 -6.078125 23.210938 -11.0625 26.117188 -16.03125 L 33.113281 -14.085938 C 32.886719 -10.660156 31.972656 5.753906 33.488281 6.875 Z M 29.242188 -27.726562 C 31.273438 -31.691406 33.390625 -34.953125 36.28125 -39.539062 C 35.972656 -35.167969 34.644531 -28.960938 34.351562 -26.621094 C 33.074219 -26.898438 30.546875 -27.539062 29.242188 -27.726562 Z M 29.242188 -27.726562 "/></g></g></g><g fill="#000000" fill-opacity="1"><g transform="translate(107.684034, 133.81493)"><g><path d="M 5.679688 -0.714844 L 6.007812 -2.292969 L 1.585938 -3.289062 L 6.007812 -4.296875 L 5.660156 -5.875 L 0.339844 -4.433594 L 0.339844 -2.15625 Z M 5.679688 -0.714844 "/></g></g></g><g fill="#000000" fill-opacity="1"><g transform="translate(113.894393, 133.81493)"><g><path d="M 0.484375 0 L 3.039062 0 L 3.039062 -2.429688 L 7.21875 -2.429688 L 7.21875 -3.878906 L 3.039062 -3.878906 L 3.039062 -5.136719 L 7.800781 -5.136719 L 7.800781 -6.929688 L 0.484375 -6.929688 Z M 0.484375 0 "/></g></g></g><g fill="#000000" fill-opacity="1"><g transform="translate(121.739579, 133.81493)"><g><path d="M 8.070312 0.195312 C 8.699219 0.195312 9.464844 -0.0273438 9.839844 -0.347656 L 9.433594 -1.375 C 9.320312 -1.238281 9.085938 -1.160156 8.921875 -1.160156 C 8.640625 -1.160156 8.46875 -1.277344 8.332031 -1.472656 L 7.859375 -2.1875 C 7.695312 -2.429688 7.480469 -2.632812 7.25 -2.710938 L 7.25 -2.71875 C 8.515625 -2.960938 9.261719 -3.6875 9.261719 -4.730469 C 9.261719 -6.125 8.1875 -6.929688 6.328125 -6.929688 L 0.484375 -6.929688 L 0.484375 0 L 3.039062 0 L 3.039062 -2.292969 L 4.472656 -2.292969 C 4.953125 -2.292969 5.371094 -2.089844 5.660156 -1.675781 L 6.066406 -1.007812 C 6.472656 -0.425781 7.007812 0.195312 8.070312 0.195312 Z M 3.039062 -3.714844 L 3.039062 -5.429688 L 5.554688 -5.429688 C 6.269531 -5.429688 6.695312 -5.109375 6.695312 -4.578125 C 6.695312 -4.035156 6.269531 -3.714844 5.546875 -3.714844 Z M 3.039062 -3.714844 "/></g></g></g><g fill="#000000" fill-opacity="1"><g transform="translate(131.442086, 133.81493)"><g><path d="M 5.398438 0.242188 C 8.457031 0.242188 10.488281 -1.238281 10.488281 -3.464844 C 10.488281 -5.699219 8.457031 -7.171875 5.398438 -7.171875 C 2.34375 -7.171875 0.308594 -5.699219 0.308594 -3.464844 C 0.308594 -1.238281 2.34375 0.242188 5.398438 0.242188 Z M 5.398438 -1.546875 C 3.878906 -1.546875 2.863281 -2.3125 2.863281 -3.464844 C 2.863281 -4.617188 3.878906 -5.378906 5.398438 -5.378906 C 6.917969 -5.378906 7.925781 -4.617188 7.925781 -3.464844 C 7.925781 -2.3125 6.917969 -1.546875 5.398438 -1.546875 Z M 5.398438 -1.546875 "/></g></g></g><g fill="#000000" fill-opacity="1"><g transform="translate(142.102271, 133.81493)"><g><path d="M 0.484375 0 L 2.894531 0 L 2.894531 -4.558594 L 2.902344 -4.558594 L 6.621094 0 L 9.6875 0 L 9.6875 -6.929688 L 7.277344 -6.929688 L 7.277344 -2.429688 L 7.269531 -2.429688 L 3.550781 -6.929688 L 0.484375 -6.929688 Z M 0.484375 0 "/></g></g></g><g fill="#000000" fill-opacity="1"><g transform="translate(152.133677, 133.81493)"><g><path d="M 0.484375 0 L 5.417969 0 C 8.121094 0 9.621094 -1.238281 9.621094 -3.464844 C 9.621094 -5.691406 8.121094 -6.929688 5.417969 -6.929688 L 0.484375 -6.929688 Z M 2.960938 -1.722656 L 2.960938 -5.214844 L 5.050781 -5.214844 C 6.386719 -5.214844 7.132812 -4.585938 7.132812 -3.464844 C 7.132812 -2.351562 6.386719 -1.722656 5.050781 -1.722656 Z M 2.960938 -1.722656 "/></g></g></g><g fill="#000000" fill-opacity="1"><g transform="translate(161.923246, 133.81493)"><g><path d="M 0.484375 0 L 7.90625 0 L 7.90625 -1.566406 L 2.960938 -1.566406 L 2.960938 -2.855469 L 7.421875 -2.855469 L 7.421875 -4.199219 L 2.960938 -4.199219 L 2.960938 -5.359375 L 7.808594 -5.359375 L 7.808594 -6.929688 L 0.484375 -6.929688 Z M 0.484375 0 "/></g></g></g><g fill="#000000" fill-opacity="1"><g transform="translate(169.884514, 133.81493)"><g><path d="M 0.484375 0 L 2.894531 0 L 2.894531 -4.558594 L 2.902344 -4.558594 L 6.621094 0 L 9.6875 0 L 9.6875 -6.929688 L 7.277344 -6.929688 L 7.277344 -2.429688 L 7.269531 -2.429688 L 3.550781 -6.929688 L 0.484375 -6.929688 Z M 0.484375 0 "/></g></g></g><g fill="#000000" fill-opacity="1"><g transform="translate(179.91592, 133.81493)"><g><path d="M 0.484375 0 L 5.417969 0 C 8.121094 0 9.621094 -1.238281 9.621094 -3.464844 C 9.621094 -5.691406 8.121094 -6.929688 5.417969 -6.929688 L 0.484375 -6.929688 Z M 2.960938 -1.722656 L 2.960938 -5.214844 L 5.050781 -5.214844 C 6.386719 -5.214844 7.132812 -4.585938 7.132812 -3.464844 C 7.132812 -2.351562 6.386719 -1.722656 5.050781 -1.722656 Z M 2.960938 -1.722656 "/></g></g></g><g fill="#000000" fill-opacity="1"><g transform="translate(189.705489, 133.81493)"><g><path d="M 0.433594 2.324219 L 5.292969 -6.851562 L 4.953125 -7.027344 L 0.0976562 2.140625 Z M 0.433594 2.324219 "/></g></g></g><g fill="#000000" fill-opacity="1"><g transform="translate(194.958162, 133.81493)"><g><path d="M 0.667969 -5.875 L 0.339844 -4.285156 L 4.761719 -3.289062 L 0.339844 -2.292969 L 0.6875 -0.714844 L 6.007812 -2.148438 L 6.007812 -4.433594 Z M 0.667969 -5.875 "/></g></g></g></svg>